<?xml version="1.0" standalone="no"?>
<!DOCTYPE svg PUBLIC "-//W3C//DTD SVG 20010904//EN"
 "http://www.w3.org/TR/2001/REC-SVG-20010904/DTD/svg10.dtd">
<svg version="1.0" xmlns="http://www.w3.org/2000/svg"
 width="260.000000pt" height="260.000000pt" viewBox="0 0 260.000000 260.000000"
 preserveAspectRatio="xMidYMid meet">
<metadata>
Created by potrace 1.11, written by Peter Selinger 2001-2013
</metadata>
<g transform="translate(0.000000,260.000000) scale(0.100000,-0.100000)"
fill="#000000" stroke="none">
<path d="M505 2077 c-18 -18 -41 -56 -51 -85 -17 -48 -23 -54 -59 -63 -81 -21
-180 -77 -227 -127 -91 -97 -92 -232 -2 -232 68 0 94 31 113 135 12 66 41 104
103 136 l38 19 -5 -147 c-3 -82 -10 -287 -16 -458 -15 -386 -12 -457 19 -487
18 -19 33 -23 84 -23 61 0 63 1 69 30 4 17 7 147 8 290 1 256 15 641 26 763
l7 62 62 0 c167 0 348 -98 414 -225 22 -42 26 -63 27 -135 0 -71 -4 -94 -26
-140 -14 -30 -35 -66 -46 -79 l-19 -24 -55 20 c-120 45 -246 37 -302 -18 -24
-25 -28 -35 -23 -61 13 -67 69 -98 176 -99 41 -1 94 7 126 17 l56 17 19 -24
c11 -13 29 -55 40 -93 40 -127 11 -236 -88 -326 -105 -96 -219 -113 -403 -60
-164 47 -240 40 -240 -24 0 -73 74 -96 311 -96 218 -1 352 41 471 149 64 58
95 106 114 184 31 118 -1 239 -84 320 l-39 38 59 61 c36 37 72 90 96 136 34
71 37 82 37 166 0 109 -15 147 -91 223 -104 104 -253 155 -460 157 l-132 1 -5
53 c-9 89 -45 106 -102 49z m408 -829 l38 -25 -31 -13 c-70 -29 -194 10 -176
55 10 28 120 17 169 -17z"/>
<path d="M1896 1994 c-227 -55 -364 -239 -311 -420 27 -93 110 -167 315 -279
249 -137 319 -211 320 -341 0 -93 -24 -149 -94 -220 -77 -76 -135 -99 -251
-98 -98 1 -169 28 -220 86 -42 46 -55 76 -55 128 0 43 26 70 66 70 39 0 54 11
54 40 0 45 -49 80 -114 80 -74 0 -133 -32 -171 -94 -26 -43 -30 -59 -30 -121
0 -62 4 -78 30 -120 38 -61 101 -105 196 -136 65 -21 92 -24 224 -24 177 0
238 16 358 94 140 92 198 187 205 337 6 123 -12 175 -86 255 -69 75 -104 99
-265 184 -216 113 -277 172 -277 267 0 61 11 88 56 138 67 73 150 101 248 80
43 -9 62 -19 86 -47 29 -33 31 -40 28 -100 -2 -48 1 -66 12 -73 54 -34 133 22
145 103 20 133 -119 228 -330 226 -44 0 -106 -7 -139 -15z"/>
</g>
</svg>
