<?xml version="1.0" encoding="UTF-8"?><!DOCTYPE svg PUBLIC "-//W3C//DTD SVG 1.1//EN" "http://www.w3.org/Graphics/SVG/1.1/DTD/svg11.dtd"><svg xmlns="http://www.w3.org/2000/svg" xmlns:xlink="http://www.w3.org/1999/xlink"><defs><svg viewBox="0 0 24 24" id="chevron-double-left"><path d="M18.41 7.41L17 6l-6 6 6 6 1.41-1.41L13.83 12l4.58-4.59m-6 0L11 6l-6 6 6 6 1.41-1.41L7.83 12l4.58-4.59z"/></svg><svg viewBox="0 0 24 24" id="chevron-double-right"><path d="M5.59 7.41L7 6l6 6-6 6-1.41-1.41L10.17 12 5.59 7.41m6 0L13 6l6 6-6 6-1.41-1.41L16.17 12l-4.58-4.59z"/></svg><svg viewBox="0 0 24 24" id="chevron-left"><path d="M15.41 16.58L10.83 12l4.58-4.59L14 6l-6 6 6 6 1.41-1.42z"/></svg><svg viewBox="0 0 24 24" id="chevron-right"><path d="M8.59 16.58L13.17 12 8.59 7.41 10 6l6 6-6 6-1.41-1.42z"/></svg><svg viewBox="0 0 24 24" id="close"><path d="M19 6.41L17.59 5 12 10.59 6.41 5 5 6.41 10.59 12 5 17.59 6.41 19 12 13.41 17.59 19 19 17.59 13.41 12 19 6.41z"/></svg><svg viewBox="0 0 24 24" id="minus-circle"><path d="M17 13H7v-2h10m-5-9A10 10 0 0 0 2 12a10 10 0 0 0 10 10 10 10 0 0 0 10-10A10 10 0 0 0 12 2z"/></svg><svg viewBox="0 0 24 24" id="page-first"><path d="M18.41 16.59L13.82 12l4.59-4.59L17 6l-6 6 6 6 1.41-1.41M6 6h2v12H6V6z"/></svg></defs></svg>